<svg id="svg4768" xmlns:rdf="http://www.w3.org/1999/02/22-rdf-syntax-ns#" xmlns="http://www.w3.org/2000/svg" xml:space="preserve" height="48" width="48" version="1.0" xmlns:cc="http://creativecommons.org/ns#" xmlns:xlink="http://www.w3.org/1999/xlink" viewBox="0.171 0.201 512 512" xmlns:dc="http://purl.org/dc/elements/1.1/"><defs id="defs4770"><linearGradient id="linearGradient3202"><stop id="stop3204" stop-color="#2b2b2b" offset="0"/><stop id="stop3250" stop-color="#828383" offset=".5"/><stop id="stop3206" stop-color="#dadbdb" offset="1"/></linearGradient><radialGradient id="radialGradient4944" gradientUnits="userSpaceOnUse" cy="471.26" cx="233.89" gradientTransform="matrix(1 0 0 .18541 0 383.88)" r="170.49"><stop id="stop4940" offset="0"/><stop id="stop4942" stop-opacity="0" offset="1"/></radialGradient><radialGradient id="radialGradient3210" xlink:href="#linearGradient3202" gradientUnits="userSpaceOnUse" cy="390.45" cx="289.44" gradientTransform="matrix(.41470 .33006 -.50590 .63565 346.95 49.48)" r="17.677"/><radialGradient id="radialGradient3238" xlink:href="#linearGradient3202" gradientUnits="userSpaceOnUse" cy="382.15" cx="283.51" gradientTransform="matrix(.41470 .33006 -.50590 .63565 448.41 -65.398)" r="17.677"/><radialGradient id="radialGradient3248" gradientUnits="userSpaceOnUse" cy="181.19" cx="418.46" gradientTransform="matrix(-.065565 -.059722 1.6871 -1.8522 171.91 540.51)" r="63.069"><stop id="stop3244" stop-color="#282828" offset="0"/><stop id="stop3252" stop-color="#808080" offset=".39253"/><stop id="stop3246" stop-color="#d9d9d9" offset="1"/></radialGradient><radialGradient id="radialGradient3300" gradientUnits="userSpaceOnUse" cy="356.62" cx="425.51" gradientTransform="matrix(-.10082 -.080872 1.0745 -1.3395 13.843 784.79)" r="143.34"><stop id="stop3296" stop-color="#6376e6" offset="0"/><stop id="stop3302" stop-color="#222989" offset=".50094"/><stop id="stop3298" stop-color="#00003d" offset="1"/></radialGradient></defs><g stroke-width="0"><path id="path4912" d="m404.38 471.26c0.02 17.46-76.32 31.62-170.49 31.62-94.18 0-170.52-14.16-170.5-31.62-0.015-17.46 76.32-31.62 170.5-31.62 94.17 0 170.51 14.16 170.49 31.62z" transform="matrix(1.3435 0 0 1.3934 -81.887 -193.71)" fill="url(#radialGradient4944)"/><path id="path4864" d="m277.2 7.9852c0 157.04-119.44 284.35-266.77 284.35s-266.76-127.31-266.76-284.35c0-157.05 119.43-284.36 266.76-284.36s266.77 127.31 266.77 284.36z" fill-opacity=".99216" transform="matrix(.88550 0 0 .83922 227.8 232.65)" fill="#5955a9"/><path id="path4839" d="m120.53 395.6s21.01 6.1 48.97 9.59c11.32 1.41 54.41 6.35 87.45 6.22 0 0 40.23 0.04 62.44-3.11 23.24-3.3 36.41-7.52 43.74-15.92 0.19-2.01 3.53-8.54-5.5-14.84-23.1-16.11-52.95-20.52-110.94-34.3-64.13-16.12-83.29-31.56-92.87-42.73-9.07-11.2 1.71-34.46 53.38-45.86 26.16-6.37 123.6-7.54 123.6-7.54-27.95-22.19-80.44-61.93-91.16-70.38-9.41-7.41-24.57-18.79-26.2-28.95-2.2-9.89 13.37-14.66 21.62-15.21 26.56-1.83 62.84 1.29 95.09 7.7 16.21 3.22 19.05 2.75 19.05 2.75 23.09 1.1 41.04-11 40.13-36.46-0.19-25.837-26.02-46.552-54.6-47.457-26.92-0.852-93.26 3.848-93.26 3.848 77.32 15.94 89.96 20.007 93.99 29.314 2.38 5.497-3.98 10.965-25.28 9.895-23.2-1.16-70.73-6.78-70.73-6.78-45.25-6.962-76.76-13.558-90.51 4.397-8.97 11.733 1.29 26.013 5.32 34.443 17.95 31.33 49 52.83 68.7 67.98 7.42 5.7 30.05 18.32 30.05 18.32-70.35-19.24-126.42-8.43-161.96 10.26-40.86 24.18-33.871 65 30.96 103.15 38.29 22.54 57.36 33.36 120.06 41.06 36.64 5.84 42.1 8.23 41.83 11.28-0.4 4.3-43.38 5.93-55.19 6.74-30.06 2.07-107.79 2.59-108.18 2.59z" fill-rule="evenodd" fill="#fff"/></g><rect id="rect4772" display="none" height="512" width="512" y="0.201" x=".171" fill="none"/><g id="g4788" display="none"/><g id="g4806" display="none"><g id="g4808" display="inline"><path id="path4810" display="none" fill="#050505" d="m349.1 256.65c-0.27-0.25 37.64 27.61 39.42 25.01 6.36-9.25 82.04-93.13 84.78-116.23 0.24-2.01-0.51-4.1-0.51-4.1s-1.19-0.14-6.33-4.31c-2.69-2.2-5.48-4.58-5.48-4.58-16.06 0.99-57.89 41.56-111.06 103.56"/></g></g><g id="g4796"/><g id="g4820"><path id="path4824" fill="#4d4d4d" d="m279.48 404.24c-0.01 0-7.45-4.11-16.81-11.4-8.08-6.28-13.54-12.21-13.54-12.22l-0.12-0.13 3.64-4.67 0.16-0.2 0.17 0.19c0.02 0.01 5.4 6.3 13.72 12.78 7.92 6.16 16.6 10.59 16.62 10.6l0.22 0.11-3.91 5.03-0.15-0.09zm-16.55-11.73c8.55 6.65 15.47 10.64 16.59 11.27l3.38-4.33c-1.43-0.75-9.26-4.92-16.46-10.52-7.5-5.85-12.64-11.54-13.61-12.65l-3.27 4.18c0.85 0.91 6.01 6.32 13.37 12.05z"/></g><rect id="rect3282" height="389.89" width="378.89" y="112.05" x="129.89" stroke-width="0" fill="none"/><g fill-rule="evenodd"><g stroke-width=".5"><path id="path3254" d="m279.42 402.43s53.23-57.1 105.33-119.98l2.27 0.7s108.05-118.41 81.62-128c0 0-13.21-26.17-116.86 99.76l-0.2 1.89c-47.82 55.14-100.95 122.38-100.95 122.38-41.04 59-65.41 102.61-63.39 106.82 2.74 5.73 92.34-83 92.18-83.57z" stroke="#000030" fill="url(#radialGradient3300)"/><path id="path2430" d="m248.89 380.28c11.63 11.91 30.6 24.01 30.6 24.01l3.75-4.77c-12.87-6.72-30.78-23.82-30.78-23.82l-3.57 4.58z" stroke="#606060" fill="url(#radialGradient3210)"/><path id="path3236" d="m349.52 256.43c20.52 13.1 36.65 28.95 36.65 28.95l2.74-3.21c-10.94-11.58-36.68-29.1-36.68-29.1l-2.71 3.36z" stroke="#606060" fill="url(#radialGradient3238)"/></g><path id="path3240" d="m462.25 151.81c10.81 0.92 12.64 10.44 12.64 10.44-49.29 51.31-121.47 125.88-121.47 125.88l-3.67-3.12c63.58-76.22 112.5-133.2 112.5-133.2" stroke="#4a4a4a" stroke-width="0.6" fill="url(#radialGradient3248)"/></g></svg>
