<svg id="svg3700" xmlns:rdf="http://www.w3.org/1999/02/22-rdf-syntax-ns#" style="image-rendering:optimizeQuality;text-rendering:geometricPrecision;shape-rendering:geometricPrecision" xmlns="http://www.w3.org/2000/svg" fill-rule="evenodd" xml:space="preserve" height="51.177" width="200.79" version="1.1" clip-rule="evenodd" xmlns:cc="http://creativecommons.org/ns#" xmlns:dc="http://purl.org/dc/elements/1.1/" viewBox="0 0 200.78734 51.122461"><defs id="defs3702"><style id="style3704" type="text/css"><![CDATA[
    .fil0 {fill:black;fill-rule:nonzero}
   ]]></style></defs><g id="Layer_x0020_1" transform="matrix(0 1 -1 0 200.79 -.13052)"><path id="path3708" d="m0.024094 91.818v17.043c4.5278 0.10842 8.2383 1.5702 11.102 4.3832 2.8371 2.7849 4.7406 6.5617 5.7064 11.304 0.93366 4.7787 1.4477 12.979 1.4778 24.604 0.06225 11.662 0.24094 19.292 0.54413 23.004 0.53811 5.9192 1.5079 10.624 2.9556 14.154 1.4477 3.5298 3.2287 6.3449 5.343 8.4491 2.1404 2.1404 4.855 3.7467 8.1439 4.851 2.2328 0.78307 5.8871 1.1766 10.951 1.1766h4.9534v-16.404h-2.7468c-6.126 0-10.17-1.3172-12.192-3.9174-1.9918-2.6082-2.9877-8.4913-2.9877-17.619 0-17.398-0.27106-28.456-0.8152-33.124-0.93567-7.7022-2.8331-13.906-5.6401-18.547-2.8391-4.596-6.8509-8.1982-12.039-10.8 6.7886-3.815 11.555-8.8788 14.332-15.192 2.7769-6.3128 4.1623-16.938 4.1623-31.913 0-13.583 0.12248-21.681 0.42165-24.356 0.42567-4.6683 1.5702-7.913 3.4997-9.7703 1.9035-1.8191 5.6763-2.7468 11.258-2.7468h2.7468v-16.398h-4.9534c-5.7626 0-9.955 0.53409-12.551 1.6746-3.7728 1.534-6.877 4.0981-9.3507 7.7022-2.4737 3.6383-4.1061 8.1982-4.8289 13.694-0.72484 5.5237-1.1445 14.549-1.2067 27.06-0.03012 12.553-0.54413 21.183-1.4778 25.962-0.96579 4.7787-2.8692 8.5576-5.7064 11.34-2.8632 2.7789-6.5738 4.2406-11.101 4.3852z" fill-rule="nonzero" class="fil0"/></g></svg>
