<svg id="svg3004" xmlns:rdf="http://www.w3.org/1999/02/22-rdf-syntax-ns#" xmlns="http://www.w3.org/2000/svg" xml:space="preserve" height="700.52" width="738.27" version="1.1" xmlns:cc="http://creativecommons.org/ns#" xmlns:dc="http://purl.org/dc/elements/1.1/"><defs id="defs3008"><clipPath id="clipPath3018" clipPathUnits="userSpaceOnUse"><path id="path3020" d="m0 977.95h1389v-977.95h-1389v977.95z"/></clipPath></defs><g id="g3012" transform="matrix(1.25 0 0 -1.25 -505.15 966.09)"><g id="g3014"><g id="g3016" clip-path="url(#clipPath3018)"><g fill-rule="evenodd"><path id="path3022" d="m748.6 646.16c0.869 1.096 163.68 85.526 246.13 126.72 0.793-0.708-138.82-89.989-206.75-133.7-4.964-5.833-58.609-2.504-39.38 6.987" fill="#222"/><path id="path3024" d="m710.94 714.24h1.27c1.406-4.816 0.902-10.714 1.589-15.879 0.72-5.417 1.581-10.132 3.175-14.292 10.457-4.362 20.375-9.264 33.347-11.116 1.053 9.129 7.895 12.946 14.606 17.468 4.133 2.783 8.254 6.384 12.707 6.986-0.84-14.05-3.858-25.968 0.633-37.792 2.861-7.521 4.902-13.336 9.211-19.372 2.007-2.815 4.433-6.014 6.668-7.623 2.414-1.735 5.705-2.638 8.257-4.128 2.575-1.502 4.756-3.021 7.303-4.764 6.981-11.171 8.477-25.854 13.975-37.792 1.498-3.253 4.238-6.074 6.67-9.211 4.119-5.31 7.908-8.631 13.339-12.385 9.469-2.761 18.297-6.974 27.313-10.798 8.568-3.634 15.41-9.142 25.088-13.02 2.666-1.07 5.531-2.915 8.574-4.128 3.147-1.257 6.797-3.377 9.215-3.494 3.81-0.188 11.226 3.521 14.92 4.763 5.264 1.767 8.486 4.763 14.928 4.763 6.441 0 5.586-3.746 4.763-9.526-0.822-5.78-9.468-27.757-13.972-42.875-2.936-9.841-6.5-17.543-20.639-15.879-15.859 1.868-32.356 8.137-49.231 6.034 6.86-8.412 26.985-6.625 38.112-12.067 5.822-2.849 6.644-11.168 0.316-14.609-8.137-4.424-23.474-1.44-32.074-0.318-8.887 1.158-18.631 3.005-26.68 5.718-8.154 2.746-15.379 7.25-22.549 10.797-7.744 3.83-15.216 7.518-20.64 12.385-14.031 5.025-29.051 9.058-39.697 17.467-24.516-1.671-56.258-3.113-70.505 8.574-6.678-6.962-11.756-15.611-17.787-23.818-6.172-8.407-12.756-15.36-14.606-26.993-1.12-7.045-1.005-16.584 0-22.867 2.335-14.58 5.975-30.293 11.751-40.334 3.604-6.26 7.941-12.318 12.382-18.101 40.968-53.307 26.729-131.53 25.409-140.06-1.315-8.521-3.213-16.617-6.987-23.498 4.684 28.426-25.874 52.326-31.758 57.162-60.821 49.996-163.23 94.234-163.23 94.234s-44.164 30.893-60.664 54.077c-18.927 26.595-32.167 58.203-34.933 102.9v13.021c5.05 71.797 38.235 120.78 85.429 150.54 23.668 14.921 54.704 25.948 91.465 26.675 37.769 0.748 66.982-11.763 92.1-26.042 8.183 12.035 17.348 23.094 31.44 29.219" fill="#3d696a"/><path id="path3026" d="m679.69 685.08s-192.69-17.791-48.245-186.34c0 0-69.111-0.276-94.925 65.253 0 0-37.027-48.436 67.996-141.94 0 0-92.283-18.782-129.34 59.254 0 0-16.177-44.013 43.027-123.14 0 0-190.34 90.613-79.303 269.07 0 0 84.766 147.4 240.79 57.853" fill="#923a2d"/></g><path id="path3028" d="m765.67 584.33c0 5.617 3.069 10.508 7.615 13.117-19.777 14.855-49.364 34.29-49.364 34.29-21.583-22.801-5-52.95-5-52.95s60.833-13.5 63.333-13.107c1.235 0.194 3.793 2.361 5.817 5.391-2.159-1.188-4.637-1.866-7.276-1.866-8.353 0-15.125 6.771-15.125 15.125" fill="#fffefe"/><path id="path3030" d="m790.62 581.9c-0.663 2.383-7.88 8.44-17.336 15.543-4.546-2.609-7.615-7.5-7.615-13.117 0-8.354 6.772-15.125 15.125-15.125 2.639 0 5.117 0.678 7.276 1.866 2.073 3.101 3.587 7.107 2.55 10.833" fill="#232323"/><path id="path3032" d="m716.96 683.79 56.731-14.6s-33.206 3.191-39.012 1.781c0 0 32.894-12.896 36.55-16.779 0 0-30.873 9.696-47.785 7.99-16.911-1.706-6.484 21.608-6.484 21.608" fill-rule="evenodd" fill="#923a2d"/></g></g></g></svg>
