<svg id="svg3392" xmlns:rdf="http://www.w3.org/1999/02/22-rdf-syntax-ns#" xmlns="http://www.w3.org/2000/svg" height="128" width="128" version="1.1" xmlns:cc="http://creativecommons.org/ns#" xmlns:dc="http://purl.org/dc/elements/1.1/" viewBox="0 0 128 128">
 <path id="path3394" d="m35.971 111.33c27.466 3.75 54.444 7.433 81.958 11.188-9.37-15.61-18.508-30.815-27.714-46.146l-54.245 34.956zm89.71-86.383c-2.421 3.636-4.847 7.269-7.265 10.907-8.304 12.493-16.607 24.986-24.903 37.485-0.462 0.696-1.061 1.248-0.41 2.321 8.016 13.237 15.969 26.513 23.942 39.777 1.258 2.095 2.53 4.182 4.157 6.192 1.612-32.193 3.223-64.387 4.834-96.58l-0.355-0.102zm-109.43 41.273c0.375 0.355 1.311 0.562 1.747 0.347 7.689-3.779 15.427-7.474 22.948-11.564 2.453-1.333 4.339-3.723 6.452-5.661 6.997-6.417 13.983-12.847 20.966-19.278 0.427-0.395 0.933-0.777 1.188-1.275 2.508-4.902 4.973-9.829 7.525-14.898-3.043-1.144-5.928-2.263-8.849-3.281-0.396-0.138-1.02 0.136-1.449 0.375-6.761 3.777-13.649 7.353-20.195 11.472-3.275 2.061-5.943 5.098-8.843 7.743-4.674 4.266-9.342 8.542-13.948 12.882-1.222 1.152-2.336 2.468-3.288 3.854-3.15 4.587-6.206 9.24-9.402 14.025 1.786 1.847 3.41 3.613 5.148 5.259zm28.102-6.271c-3.825 16.159-7.627 32.227-11.556 48.821 18.423-11.869 36.421-23.466 54.3-34.985-14.228-4.605-28.41-9.196-42.744-13.836zm76.631-34.846c-15.566 2.601-30.76 5.139-46.15 7.71l15.662 38.096c10.221-15.359 20.24-30.41 30.488-45.806zm-75.984 31.541c14.017 4.55 27.755 9.01 41.892 13.6-5.25-12.79-10.32-25.133-15.495-37.737-8.815 8.059-17.498 15.999-26.397 24.137zm-28.165 18.999c-4.971 11.883-9.773 23.362-14.662 35.047 9.396-0.278 18.504-0.547 27.925-0.825-4.423-11.412-8.759-22.6-13.263-34.223zm13.593 26.096 0.346-0.076c3.353-13.941 6.754-27.786 10.177-42.272-7.636 3.969-14.92 7.754-22.403 11.644 3.819 9.926 7.891 20.397 11.88 30.704zm84.927-78.897c-4.459-1.181-8.918-2.366-13.379-3.539-6.412-1.686-12.829-3.351-19.237-5.052-0.801-0.213-1.38-0.352-1.851 0.613-2.265 4.64-4.6 9.245-6.901 13.868-0.071 0.143-0.056 0.328-0.111 0.687 13.886-2.104 27.679-4.195 41.47-6.285l0.009-0.292zm-25.868-10.555 36.338 10.054c-2.084-5.939-4.017-11.446-6.005-17.11l-30.285 6.715-0.053 0.341zm-55.977 101.72c-4.501-0.519-9.122-0.042-13.687 0.037-3.75 0.063-7.5 0.206-11.25 0.323-0.386 0.012-0.771 0.09-1.156 0.506 31.003 2.866 62.005 5.732 93.007 8.6l0.063-0.414c-9.938-1.357-19.877-2.714-29.815-4.07-12.384-1.691-24.747-3.551-37.162-4.982zm-30.723-14.016c3.995-9.27 7.973-18.546 11.984-27.809 0.401-0.929 0.37-1.56-0.415-2.308-1.678-1.597-3.237-3.318-5.071-5.226-2.479 12.24-4.897 24.177-7.317 36.109l0.271 0.127c0.185-0.297 0.411-0.578 0.548-0.897zm78.74-90.153c6.737-1.738 13.572-3.097 20.367-4.613 0.44-0.099 0.87-0.244 1.303-0.368l-0.067-0.332c-9.571 1.287-19.141 2.575-29.194 3.928 2.741 1.197 4.853 2.091 7.591 1.385z" fill-rule="evenodd" clip-rule="evenodd" fill="#d91404"/>
</svg>
